# xmcd
#
# Track frame offsets: 
#        150
#        12344
#        22382
#        37225
#        48283
#        62295
#        74146
#        80386
#        96401
#        108177
#        123092
#        132729
#        144082
#        154380
#        163892
#        176051
#        186342
#
# Disc length: 2685 seconds
#
# Revision: 4
# Processed by: cddbd v1.5.2PL0 Copyright (c) Steve Scherf et al.
# Submitted via: ExactAudioCopy v1.3
#
DISCID=f90a7b11
DTITLE=Various Artist - The Best Of Country and Western - Vol.1 - CD2
DYEAR=1997
DGENRE=Country
TTITLE0=Johnny Cash - Folsom Prison blues 
TTITLE1=Brenda Lee - I'm sorry 
TTITLE2=John Denver - For you 
TTITLE3=George Jones - Where we never grow old
TTITLE4=Willie Nelson - Good hearted woman 
TTITLE5=Patsy Cline - Today, tomorrow and forever 
TTITLE6=Brenda Lee - I'll fly away 
TTITLE7=Anne Murray - Both sides now 
TTITLE8=Wanda Jackson - Sweet dreams
TTITLE9=Kenny Rogers - Heed the call 
TTITLE10=Lynn Anderson - Snowbird 
TTITLE11=Charley Pride - It's gonna take a little bit longer 
TTITLE12=Loretta Lynn - Out of my head and back in my bed 
TTITLE13=Ferlin Husky - Truck driving son of a gun 
TTITLE14=Willie Nelson - Seven spanish angels 
TTITLE15=Wanda Jackson - It's only make believe 
TTITLE16=Billie Jo Spears - Blanket on the ground 
EXTD=
EXTT0=
EXTT1=
EXTT2=
EXTT3=
EXTT4=
EXTT5=
EXTT6=
EXTT7=
EXTT8=
EXTT9=
EXTT10=
EXTT11=
EXTT12=
EXTT13=
EXTT14=
EXTT15=
EXTT16=
PLAYORDER=
